{"title":"Harlem.Nights.1989.1080p.WEB-DL.DD5.1.H.264-RARBG","uid":11966089,"size":4906642434,"categoryP":"video","categoryS":"hd___movies","magnet":"?xt=urn:btih:a10cfcb5566631bd8cb30ef81676a1f4f006a6d4&amp;dn=Harlem.Nights.1989.1080p.WEB-DL.DD5.1.H.264-RARBG&amp;tr=udp%3A%2F%2Ftracker.openbittorrent.com%3A80&amp;tr=udp%3A%2F%2Fopen.demonii.com%3A1337&amp;tr=udp%3A%2F%2Ftracker.coppersurfer.tk%3A6969&amp;tr=udp%3A%2F%2Fexodus.desync.com%3A6969","seeders":1,"leechers":1,"uploader":"frostyon420","files":3,"time":1432671771,"description":"Video\nID                          : 1\nFormat                      : AVC\nFormat/Info                 : Advanced Video Codec\nFormat profile              : &lt;a class=&quot;__cf_email__&quot; href=&quot;/cdn-cgi/l/email-protection&quot; data-cfemail=&quot;e9a1808e81a9a5ddc7d9&quot;&gt;[email&amp;#160;protected]&lt;/a&gt;&lt;script data-cfhash='f9e31' type=&quot;text/javascript&quot;&gt;\n/* &lt;![CDATA[ */!function(){try{var t=&quot;currentScript&quot;in document?document.currentScript:function(){for(var t=document.getElementsByTagName(&quot;script&quot;),e=t.length;e--;)if(t[e].getAttribute(&quot;data-cfhash&quot;))return t[e]}();if(t&amp;&amp;t.previousSibling){var e,r,n,i,c=t.previousSibling,a=c.getAttribute(&quot;data-cfemail&quot;);if(a){for(e=&quot;&quot;,r=parseInt(a.substr(0,2),16),n=2;a.length-n;n+=2)i=parseInt(a.substr(n,2),16)^r,e+=String.fromCharCode(i);e=document.createTextNode(e),c.parentNode.replaceChild(e,c)}t.parentNode.removeChild(t);}}catch(u){}}()/* ]]&gt; */&lt;/script&gt;\nFormat settings, CABAC      : Yes\nFormat settings, ReFrames   : 4 frames\nCodec ID                    : V_MPEG4/ISO/AVC\nDuration                    : 1h 55mn\nBit rate                    : 5 150 Kbps\nWidth                       : 1 916 pixels\nHeight                      : 1 076 pixels\nDisplay aspect ratio        : 16:9\nFrame rate mode             : Constant\nFrame rate                  : 23.976 fps\nColor space                 : YUV\nChroma subsampling          : 4:2:0\nBit depth                   : 8 bits\nScan type                   : Progressive\nBits/(Pixel*Frame)          : 0.104\nStream size                 : 4.17 GiB (91%)\nTitle                       : Harlem.Nights.1989.1080p.WEB-DL.DD5.1.H.264-RARBG\nLanguage                    : English\nDefault                     : Yes\nForced                      : No\nColor primaries             : BT.709\nTransfer characteristics    : BT.709\nMatrix coefficients         : BT.709\nColor range                 : Limited\n\nAudio\nID                          : 2\nFormat                      : AC-3\nFormat/Info                 : Audio Coding 3\nMode extension              : CM (complete main)\nFormat settings, Endianness : Big\nCodec ID                    : A_AC3\nDuration                    : 1h 55mn\nBit rate mode               : Constant\nBit rate                    : 384 Kbps\nChannel(s)                  : 6 channels\nChannel positions           : Front: L C R, Side: L R, LFE\nSampling rate               : 48.0 KHz\nBit depth                   : 16 bits\nCompression mode            : Lossy\nStream size                 : 318 MiB (7%)\nTitle                       : Harlem.Nights.1989.1080p.WEB-DL.DD5.1.H.264-RARBG\nLanguage                    : English\nDefault                     : Yes\nForced                      : No\n\nText\nID                          : 3\nFormat                      : UTF-8\nCodec ID                    : S_TEXT/UTF8\nCodec ID/Info               : UTF-8 Plain Text\nTitle                       : English\nDefault                     : No\nForced                      : No\n\nMenu\n00:00:00.000                : Main Title\n00:02:38.000                : Harlem 1918\n00:08:47.000                : Sugar Ray's 20 Years Later\n00:21:17.000                : Vera And Quick - Alley Fight\n00:29:45.000                : Hey, It's The Champ!\n00:37:23.000                : Cantone Visits Sugar Ray\n00:42:25.000                : We Gonna Rob Bugsy Calhoune\n00:54:02.000                : Oh, Quick Is Mine\n00:59:29.000                : Are You Coming?\n01:08:31.000                : I'm Gonna Get Myself A Real Man\n01:11:12.000                : It Ain't Cool To Die At 27\n01:22:00.000                : Quick, You Should Have Seen It\n01:24:31.000                : I Love You Too\n01:25:49.000                : I Ain't Coming Home No More\n01:30:53.000                : And Now For The Main Event\n01:39:19.000                : We're Making A Deposit\n01:47:43.000                : It's A Set Up\n01:49:32.000                : And A Trunk Full Of Money\n\nStay Phr0stY ;)","torrent":{"xt":"urn:btih:a10cfcb5566631bd8cb30ef81676a1f4f006a6d4","amp;dn":"Harlem.Nights.1989.1080p.WEB-DL.DD5.1.H.264-RARBG","amp;tr":["udp%3A%2F%2Ftracker.openbittorrent.com%3A80","udp%3A%2F%2Fopen.demonii.com%3A1337","udp%3A%2F%2Ftracker.coppersurfer.tk%3A6969","udp%3A%2F%2Fexodus.desync.com%3A6969"],"infoHash":"a10cfcb5566631bd8cb30ef81676a1f4f006a6d4","infoHashBuffer":{"type":"Buffer","data":[161,12,252,181,86,102,49,189,140,179,14,248,22,118,161,244,240,6,166,212]},"announce":[],"urlList":[]}}